<!-- <svg xmlns="http://www.w3.org/2000/svg" height="24" viewBox="0 -960 960 960" width="24"><path d="M200-520q-33 0-56.5-23.5T120-600v-160q0-33 23.5-56.5T200-840h560q33 0 56.5 23.5T840-760v160q0 33-23.5 56.5T760-520H200Zm0-80h560v-160H200v160Zm0 480q-33 0-56.5-23.5T120-200v-160q0-33 23.5-56.5T200-440h560q33 0 56.5 23.5T840-360v160q0 33-23.5 56.5T760-120H200Zm0-80h560v-160H200v160Zm0-400v-160 160Zm0 400v-160 160Z"/></svg> -->

<svg xmlns="http://www.w3.org/2000/svg" height="24" viewBox="0 0 24 24" width="24">
  <path d="M4 5h16v2H4zm0 6h16v2H4zm0 6h16v2H4z" fill="currentColor"/>
  <path d="M0 0h24v24H0z" fill="none"/>
</svg>





